<?xml version="1.0" encoding="UTF-8"?>
<!DOCTYPE svg PUBLIC "-//W3C//DTD SVG 1.1//EN" "http://www.w3.org/Graphics/SVG/1.1/DTD/svg11.dtd">
<!-- Creator: CorelDRAW X7 -->
<svg xmlns="http://www.w3.org/2000/svg" xml:space="preserve" width="198px" height="151px" version="1.1" style="shape-rendering:geometricPrecision; text-rendering:geometricPrecision; image-rendering:optimizeQuality; fill-rule:evenodd; clip-rule:evenodd"
viewBox="0 0 198 151"
 xmlns:xlink="http://www.w3.org/1999/xlink">
 <defs>
  <style type="text/css">
   <![CDATA[
    .fil1 {fill:black}
    .fil0 {fill:#FE0000}
    .fil2 {fill:#FEFEFE}
   ]]>
  </style>
 </defs>
 <g id="图层_x0020_1">
  <metadata id="CorelCorpID_0Corel-Layer"/>
  <g id="_783017264">
   <path class="fil0" d="M63 107c1,-3 -1,-6 -4,-6 -2,-1 -5,1 -5,4 -2,6 8,8 9,2zm27 10c0,-3 -2,-6 -5,-6 -3,-1 -6,1 -7,4 0,3 2,6 5,7 3,1 6,-1 7,-5zm16 -23c0,-3 -1,-5 -4,-6 -2,0 -5,1 -5,4 -2,6 7,8 9,2zm17 15c-3,5 -5,8 -9,12 -7,8 -17,13 -28,15 -13,2 -24,1 -36,-5 -6,-3 -13,-9 -17,-14 -6,-7 -9,-14 -11,-22l9 -2 85 -18c2,5 3,11 4,17 0,2 1,5 2,8 0,2 0,3 1,4 0,1 1,4 0,5z"/>
   <path class="fil0" d="M58 46c3,1 5,-1 5,-4 1,-3 -1,-5 -4,-6 -3,0 -5,2 -5,5 -1,3 1,5 4,5zm18 -36l-2 0c-2,0 -5,0 -8,1 -4,0 -12,2 -16,5 -2,1 -4,2 -6,4 -1,1 -2,1 -3,2 -6,4 -9,9 -13,15 -3,5 -5,9 -6,15 1,0 8,2 9,2 1,0 9,2 11,2l31 7c8,2 15,3 22,5l16 3c1,1 4,1 5,1 0,-1 3,-14 4,-17l3 -15c0,-1 1,-1 0,-2 -5,-9 -12,-16 -21,-21 -8,-5 -17,-7 -26,-7zm7 15c-3,0 -5,3 -5,6 1,4 4,6 7,5 3,0 5,-3 5,-6 -1,-3 -4,-6 -7,-5zm17 34c3,0 5,-2 6,-4 0,-3 -1,-5 -4,-6 -3,0 -5,2 -5,4 -1,3 1,5 3,6z"/>
   <path class="fil1" d="M142 61c1,-5 -7,-7 -8,-2 -1,6 7,7 8,2zm0 27c0,-3 -1,-5 -3,-5 -2,-1 -4,1 -5,3 -1,5 7,7 8,2zm-19 21c1,-1 0,-4 0,-5 -1,-1 -1,-2 -1,-4 -1,-3 -2,-6 -2,-8 -1,-6 -2,-12 -4,-17l-85 18c-5,-10 -6,-19 -3,-30 0,-2 1,-3 1,-5l2 -4c1,0 9,2 11,2l31 7c8,2 15,3 22,5l16 3c1,1 4,1 5,1 0,-1 3,-14 4,-17l3 -15c0,-1 1,-1 0,-2 1,0 2,0 3,0 5,1 8,3 13,6 2,1 6,4 6,5 1,1 2,1 3,3 1,1 1,2 2,3 2,0 5,-2 7,-3 2,-1 4,-3 5,-5 3,-3 5,-10 3,-15 -4,1 -6,-4 -2,-7 2,-1 5,0 5,4 0,1 -1,2 -1,3 1,2 1,6 0,9 -1,6 -6,12 -12,15 -2,0 -2,0 -4,1 2,2 3,6 4,9 0,1 0,2 0,2 0,2 0,4 0,5 1,4 -1,10 -2,13l-2 4c1,0 2,1 2,1 4,1 9,4 11,8 3,3 4,7 4,12 0,1 0,3 -1,4 0,1 1,2 1,2 0,4 -3,6 -5,4 -3,-1 -3,-5 -1,-6 2,-1 2,0 3,-1 1,-2 1,-6 0,-8 -1,-5 -5,-11 -11,-13 -1,0 -2,-1 -4,-1 0,1 -2,4 -5,6 -4,4 -7,6 -13,9 -2,0 -7,2 -9,2z"/>
   <path class="fil1" d="M83 25c3,-1 6,2 7,5 0,3 -2,6 -5,6 -3,1 -6,-1 -7,-5 0,-3 2,-6 5,-6z"/>
   <path class="fil1" d="M90 117c-1,4 -4,6 -7,5 -3,-1 -5,-4 -5,-7 1,-3 4,-5 7,-4 3,0 5,3 5,6z"/>
   <path class="fil1" d="M63 107c-1,6 -11,4 -9,-2 0,-3 3,-5 5,-4 3,0 5,3 4,6z"/>
   <path class="fil1" d="M58 46c-3,0 -5,-2 -4,-5 0,-3 2,-5 5,-5 3,1 5,3 4,6 0,3 -2,5 -5,4z"/>
   <path class="fil1" d="M106 94c-2,6 -11,4 -9,-2 0,-3 3,-4 5,-4 3,1 4,3 4,6z"/>
   <path class="fil1" d="M100 59c-2,-1 -4,-3 -3,-6 0,-2 2,-4 5,-4 3,1 4,3 4,6 -1,2 -3,4 -6,4z"/>
   <path class="fil2" d="M142 61c-1,5 -9,4 -8,-2 1,-5 9,-3 8,2z"/>
   <path class="fil2" d="M142 88c-1,5 -9,3 -8,-2 1,-2 3,-4 5,-3 2,0 3,2 3,5z"/>
  </g>
 </g>
</svg>
