<?xml version="1.0" encoding="UTF-8"?>
<!DOCTYPE svg PUBLIC "-//W3C//DTD SVG 1.1//EN" "http://www.w3.org/Graphics/SVG/1.1/DTD/svg11.dtd">
<!-- Creator: CorelDRAW X7 -->
<svg xmlns="http://www.w3.org/2000/svg" xml:space="preserve" width="198px" height="151px" version="1.1" style="shape-rendering:geometricPrecision; text-rendering:geometricPrecision; image-rendering:optimizeQuality; fill-rule:evenodd; clip-rule:evenodd"
viewBox="0 0 198 151"
 xmlns:xlink="http://www.w3.org/1999/xlink">
 <defs>
  <style type="text/css">
   <![CDATA[
    .fil1 {fill:black}
    .fil0 {fill:#FE0000}
    .fil2 {fill:#FEFEFE}
   ]]>
  </style>
 </defs>
 <g id="图层_x0020_1">
  <metadata id="CorelCorpID_0Corel-Layer"/>
  <g id="_784071024">
   <path class="fil0" d="M56 95c0,-3 -2,-6 -5,-6 -3,0 -6,2 -7,5 0,3 2,6 5,6 4,1 6,-1 7,-5zm27 19c0,-4 -2,-7 -6,-8 -4,0 -7,2 -8,6 0,4 3,7 6,8 4,0 7,-3 8,-6zm24 -22c0,-3 -2,-6 -5,-7 -3,0 -5,2 -6,5 -1,3 1,6 4,6 3,1 6,-1 7,-4zm-88 -18l104 0 0 39c-3,4 -9,9 -13,12 -8,6 -17,9 -27,10 -5,1 -12,1 -17,0 -5,-1 -10,-2 -14,-4 -24,-9 -40,-32 -40,-57l7 0z"/>
   <path class="fil0" d="M56 52c0,-3 -2,-6 -5,-7 -3,0 -6,2 -7,5 0,4 2,7 5,7 4,0 6,-2 7,-5zm27 -18c0,-4 -2,-7 -6,-8 -4,0 -7,2 -8,6 0,4 3,7 6,8 4,0 7,-3 8,-6zm24 22c0,-3 -2,-6 -5,-6 -3,-1 -5,1 -6,4 -1,3 1,6 4,6 3,1 6,-1 7,-4zm-88 16l-7 0c0,-14 4,-25 12,-36 3,-5 8,-9 12,-13 5,-3 10,-6 16,-9 13,-5 28,-5 41,-1 6,2 12,4 17,8 3,2 10,8 13,11l0 40 -104 0z"/>
   <path class="fil1" d="M147 93c6,1 8,-8 2,-9 -6,-2 -8,7 -2,9zm0 -31c6,1 8,-8 2,-9 -3,0 -5,1 -6,4 0,2 2,5 4,5zm-24 51l0 -39 -104 0 0 -2 104 0 0 -40 5 0c0,0 1,0 2,0 1,0 4,1 6,1 3,1 8,2 11,4 11,7 14,14 15,14 3,0 5,-1 8,-3 5,-3 8,-7 9,-13 1,-2 2,-7 0,-9 -1,-1 -2,0 -3,-1 -1,-1 -1,-1 -2,-2 -1,-5 5,-8 8,-4 1,2 1,4 -1,6 2,2 1,7 1,10 -1,6 -5,11 -10,15 -2,2 -6,3 -9,4 2,2 3,5 4,8 0,2 0,3 1,5 0,1 0,2 0,3 0,0 0,1 0,1 0,4 0,4 0,7 -1,2 -1,4 -1,6 -1,2 -2,4 -3,6 0,1 -1,2 -1,2 1,1 3,1 5,2 4,2 7,4 10,8 4,5 6,14 3,19 1,1 1,1 2,3 0,1 0,2 -1,3 -2,4 -9,1 -8,-4 1,-3 4,-3 5,-3 2,-2 1,-7 0,-9 -1,-3 -2,-6 -3,-8 -2,-2 -4,-4 -6,-6 -2,-1 -6,-3 -8,-2 -1,0 -1,1 -2,2 0,0 -1,1 -1,2 -2,2 -5,5 -8,7 -1,1 -3,2 -4,3 -3,2 -7,3 -11,4 -4,1 -9,1 -13,0z"/>
   <path class="fil1" d="M83 114c-1,3 -4,6 -8,6 -3,-1 -6,-4 -6,-8 1,-4 4,-6 8,-6 4,1 6,4 6,8z"/>
   <path class="fil1" d="M83 34c-1,3 -4,6 -8,6 -3,-1 -6,-4 -6,-8 1,-4 4,-6 8,-6 4,1 6,4 6,8z"/>
   <path class="fil1" d="M56 95c-1,4 -3,6 -7,5 -3,0 -5,-3 -5,-6 1,-3 4,-5 7,-5 3,0 5,3 5,6z"/>
   <path class="fil1" d="M56 52c-1,3 -3,5 -7,5 -3,0 -5,-3 -5,-7 1,-3 4,-5 7,-5 3,1 5,4 5,7z"/>
   <path class="fil1" d="M107 56c-1,3 -4,5 -7,4 -3,0 -5,-3 -4,-6 1,-3 3,-5 6,-4 3,0 5,3 5,6z"/>
   <path class="fil1" d="M107 92c-1,3 -4,5 -7,4 -3,0 -5,-3 -4,-6 1,-3 3,-5 6,-5 3,1 5,4 5,7z"/>
   <path class="fil2" d="M147 93c-6,-2 -4,-11 2,-9 6,1 4,10 -2,9z"/>
   <path class="fil2" d="M147 62c-2,0 -4,-3 -4,-5 1,-3 3,-4 6,-4 6,1 4,10 -2,9z"/>
  </g>
 </g>
</svg>
